<svg width="24" height="24" viewBox="0 0 24 24" fill="none" xmlns="http://www.w3.org/2000/svg">
<g id="Frame">
<g id="Group">
<path id="Vector" d="M4.85347 16.2017L4.85359 16.2017C6.34982 15.1803 8.78467 14.5298 11.5349 14.5298C11.7464 14.5298 11.9493 14.4457 12.0989 14.2961C12.2485 14.1465 12.3326 13.9437 12.3326 13.7321C12.3326 13.5205 12.2485 13.3176 12.0989 13.1681C11.9493 13.0185 11.7464 12.9344 11.5349 12.9344C8.43073 12.9344 5.67357 13.7105 3.9539 14.883L3.95389 14.883C2.64116 15.7782 1.9 16.9282 1.9 18.1507V19.5005C1.9 19.9464 2.07715 20.3741 2.39247 20.6894C2.70779 21.0047 3.13546 21.1819 3.5814 21.1819H11.5349C11.7464 21.1819 11.9493 21.0978 12.0989 20.9482C12.2485 20.7986 12.3326 20.5957 12.3326 20.3842C12.3326 20.1726 12.2485 19.9697 12.0989 19.8201C11.9493 19.6706 11.7464 19.5865 11.5349 19.5865H3.5814C3.55857 19.5865 3.53669 19.5774 3.52055 19.5613C3.50441 19.5452 3.49535 19.5233 3.49535 19.5005V18.1507C3.49535 17.4297 4.01128 16.7749 4.85347 16.2017ZM17.1163 13.7028V13.7027L17.1134 13.7028C16.2251 13.7286 15.3818 14.0996 14.7627 14.737C14.1435 15.3744 13.7971 16.2281 13.7971 17.1167C13.7971 18.0054 14.1435 18.8591 14.7627 19.4965C15.3818 20.1339 16.2251 20.5049 17.1134 20.5307L17.1134 20.5307H17.1163C19.0003 20.5307 20.5307 19.0003 20.5307 17.1163C20.5307 15.2322 19.0003 13.7028 17.1163 13.7028ZM11.5349 1.9C8.65547 1.9 6.3186 4.23686 6.3186 7.11628C6.3186 9.99569 8.65547 12.3326 11.5349 12.3326C14.4143 12.3326 16.7512 9.99569 16.7512 7.11628C16.7512 4.23686 14.4143 1.9 11.5349 1.9ZM11.5349 3.49535C13.5336 3.49535 15.1558 5.11755 15.1558 7.11628C15.1558 9.115 13.5336 10.7372 11.5349 10.7372C9.53616 10.7372 7.91395 9.115 7.91395 7.11628C7.91395 5.11755 9.53616 3.49535 11.5349 3.49535ZM17.1163 15.2981C18.1197 15.2981 18.9353 16.113 18.9353 17.1163C18.9353 18.1197 18.1197 18.9353 17.1163 18.9353C16.1129 18.9353 15.2972 18.1197 15.2972 17.1163C15.2972 16.113 16.1128 15.2981 17.1163 15.2981Z" fill="url(#paint0_linear_3325_2713)" stroke="url(#paint1_linear_3325_2713)" stroke-width="0.2"/>
<path id="Vector_2" d="M16.3186 14.5005V14.5005L17.9139 14.4995V14.4995V12.9302C17.9139 12.7187 17.8299 12.5158 17.6803 12.3662C17.5307 12.2166 17.3278 12.1325 17.1163 12.1325C16.9047 12.1325 16.7018 12.2166 16.5522 12.3662C16.4026 12.5158 16.3186 12.7187 16.3186 12.9302V14.5005ZM19.5301 15.8309L19.5303 15.8307L20.64 14.72C20.64 14.72 20.64 14.72 20.64 14.72C20.7895 14.5705 20.8735 14.3677 20.8735 14.1563C20.8735 13.9448 20.7895 13.742 20.64 13.5925C20.4905 13.443 20.2877 13.359 20.0763 13.359C19.8648 13.359 19.6621 13.443 19.5126 13.5925C19.5126 13.5925 19.5125 13.5925 19.5125 13.5925L18.4019 14.7023L18.4017 14.7025C18.2525 14.8523 18.1688 15.0551 18.1688 15.2665C18.1688 15.4779 18.2525 15.6807 18.4017 15.8305L18.402 15.8309C18.5518 15.98 18.7546 16.0637 18.966 16.0637C19.1774 16.0637 19.3802 15.98 19.5301 15.8309ZM18.4017 19.5301L18.4019 19.5303L19.5125 20.64C19.5125 20.64 19.5126 20.64 19.5126 20.64C19.5866 20.714 19.6745 20.7728 19.7712 20.8128C19.8679 20.8529 19.9716 20.8735 20.0763 20.8735C20.181 20.8735 20.2846 20.8529 20.3814 20.8128C20.4781 20.7728 20.566 20.714 20.64 20.64C20.714 20.566 20.7728 20.4781 20.8128 20.3814C20.8529 20.2846 20.8735 20.181 20.8735 20.0763C20.8735 19.9716 20.8529 19.8679 20.8128 19.7712C20.7728 19.6745 20.714 19.5866 20.64 19.5126C20.64 19.5126 20.64 19.5125 20.64 19.5125L19.5303 18.4019L19.5301 18.4017C19.3802 18.2525 19.1774 18.1688 18.966 18.1688C18.7546 18.1688 18.5518 18.2525 18.402 18.4017L18.4017 18.402C18.2525 18.5518 18.1688 18.7546 18.1688 18.966C18.1688 19.1774 18.2525 19.3802 18.4017 19.5301ZM14.7025 18.4017L14.7023 18.4019L13.5925 19.5125C13.5925 19.5125 13.5925 19.5126 13.5925 19.5126C13.5185 19.5866 13.4598 19.6745 13.4197 19.7712C13.3796 19.8679 13.359 19.9716 13.359 20.0763C13.359 20.181 13.3796 20.2846 13.4197 20.3814C13.4598 20.4781 13.5185 20.566 13.5925 20.64C13.6666 20.714 13.7544 20.7728 13.8512 20.8128C13.9479 20.8529 14.0516 20.8735 14.1563 20.8735C14.261 20.8735 14.3646 20.8529 14.4614 20.8128C14.5581 20.7728 14.6459 20.714 14.72 20.64C14.72 20.64 14.72 20.64 14.72 20.64L15.8307 19.5303L15.8309 19.5301C15.98 19.3802 16.0637 19.1774 16.0637 18.966C16.0637 18.7546 15.98 18.5518 15.8309 18.402L15.8305 18.4017C15.6807 18.2525 15.4779 18.1688 15.2665 18.1688C15.0551 18.1688 14.8523 18.2525 14.7025 18.4017ZM15.8309 14.7025L15.8307 14.7023L14.72 13.5925C14.72 13.5925 14.72 13.5925 14.72 13.5925C14.6459 13.5185 14.5581 13.4598 14.4614 13.4197C14.3646 13.3796 14.261 13.359 14.1563 13.359C14.0516 13.359 13.9479 13.3796 13.8512 13.4197C13.7544 13.4598 13.6666 13.5185 13.5925 13.5925C13.5185 13.6666 13.4598 13.7544 13.4197 13.8512C13.3796 13.9479 13.359 14.0516 13.359 14.1563C13.359 14.261 13.3796 14.3646 13.4197 14.4614C13.4598 14.5581 13.5185 14.6459 13.5925 14.72C13.5925 14.72 13.5925 14.72 13.5925 14.72L14.7023 15.8307L14.7025 15.8309C14.8523 15.98 15.0551 16.0637 15.2665 16.0637C15.4779 16.0637 15.6807 15.98 15.8305 15.8309L15.8309 15.8305C15.98 15.6807 16.0637 15.4779 16.0637 15.2665C16.0637 15.0551 15.98 14.8523 15.8309 14.7025ZM19.7321 17.9139H21.3023C21.5139 17.9139 21.7168 17.8299 21.8664 17.6803C22.0159 17.5307 22.1 17.3278 22.1 17.1163C22.1 16.9047 22.0159 16.7018 21.8664 16.5522C21.7168 16.4026 21.5139 16.3186 21.3023 16.3186H19.7321C19.5205 16.3186 19.3176 16.4026 19.168 16.5522C19.0184 16.7018 18.9344 16.9047 18.9344 17.1163C18.9344 17.3278 19.0184 17.5307 19.168 17.6803C19.3176 17.8299 19.5205 17.9139 19.7321 17.9139ZM16.3186 19.7321V21.3023C16.3186 21.5139 16.4026 21.7168 16.5522 21.8664C16.7018 22.0159 16.9047 22.1 17.1163 22.1C17.3278 22.1 17.5307 22.0159 17.6803 21.8664C17.8299 21.7168 17.9139 21.5139 17.9139 21.3023V19.7321C17.9139 19.5205 17.8299 19.3176 17.6803 19.168C17.5307 19.0184 17.3278 18.9344 17.1163 18.9344C16.9047 18.9344 16.7018 19.0184 16.5522 19.168C16.4026 19.3176 16.3186 19.5205 16.3186 19.7321ZM14.4995 16.3186H12.9302C12.7187 16.3186 12.5158 16.4026 12.3662 16.5522C12.2166 16.7018 12.1325 16.9047 12.1325 17.1163C12.1325 17.3278 12.2166 17.5307 12.3662 17.6803C12.5158 17.8299 12.7187 17.9139 12.9302 17.9139H14.4995C14.7111 17.9139 14.914 17.8299 15.0636 17.6803C15.2132 17.5307 15.2972 17.3278 15.2972 17.1163C15.2972 16.9047 15.2132 16.7018 15.0636 16.5522C14.914 16.4026 14.7111 16.3186 14.4995 16.3186Z" fill="url(#paint2_linear_3325_2713)" stroke="url(#paint3_linear_3325_2713)" stroke-width="0.2"/>
</g>
</g>
<defs>
<linearGradient id="paint0_linear_3325_2713" x1="20.4307" y1="2" x2="-1.01665" y2="6.05093" gradientUnits="userSpaceOnUse">
<stop stop-color="#1ADDD2"/>
<stop offset="1" stop-color="#0094CC"/>
</linearGradient>
<linearGradient id="paint1_linear_3325_2713" x1="20.4307" y1="2" x2="-1.01665" y2="6.05093" gradientUnits="userSpaceOnUse">
<stop stop-color="#1ADDD2"/>
<stop offset="1" stop-color="#0094CC"/>
</linearGradient>
<linearGradient id="paint2_linear_3325_2713" x1="22" y1="12.2325" x2="10.6619" y2="14.4497" gradientUnits="userSpaceOnUse">
<stop stop-color="#1ADDD2"/>
<stop offset="1" stop-color="#0094CC"/>
</linearGradient>
<linearGradient id="paint3_linear_3325_2713" x1="22" y1="12.2325" x2="10.6619" y2="14.4497" gradientUnits="userSpaceOnUse">
<stop stop-color="#1ADDD2"/>
<stop offset="1" stop-color="#0094CC"/>
</linearGradient>
</defs>
</svg>
