<svg width="24" height="24" viewBox="0 0 24 24" fill="none" xmlns="http://www.w3.org/2000/svg">
<g id="Frame">
<g id="Group">
<path id="Vector" d="M12.0245 4.30737C10.1873 4.30737 8.69268 5.80203 8.69268 7.6392C8.69268 9.47636 10.1873 10.971 12.0245 10.971C13.8617 10.971 15.3563 9.47636 15.3563 7.6392C15.3563 5.80203 13.8617 4.30737 12.0245 4.30737ZM12.0245 9.50111C10.9979 9.50111 10.1626 8.66585 10.1626 7.6392C10.1626 6.61255 10.9979 5.77728 12.0245 5.77728C13.0512 5.77728 13.8864 6.61255 13.8864 7.6392C13.8864 8.66585 13.0512 9.50111 12.0245 9.50111ZM4.6994 7.34521C3.30803 7.34521 2.17602 8.47721 2.17602 9.86858C2.17602 11.2599 3.30803 12.392 4.6994 12.392C6.09076 12.392 7.22277 11.2599 7.22277 9.86858C7.22277 8.47721 6.09076 7.34521 4.6994 7.34521ZM4.6994 10.922C4.11855 10.922 3.64594 10.4495 3.64594 9.86858C3.64594 9.28773 4.11851 8.81512 4.6994 8.81512C5.28025 8.81512 5.75286 9.28769 5.75286 9.86858C5.75281 10.4495 5.28025 10.922 4.6994 10.922ZM19.3006 7.34521C17.9093 7.34521 16.7773 8.47721 16.7773 9.86858C16.7773 11.2599 17.9093 12.392 19.3006 12.392C20.692 12.392 21.824 11.2599 21.824 9.86858C21.824 8.47721 20.692 7.34521 19.3006 7.34521ZM19.3006 10.922C18.7198 10.922 18.2472 10.4495 18.2472 9.86858C18.2472 9.28773 18.7197 8.81512 19.3006 8.81512C19.8815 8.81512 20.3541 9.28769 20.3541 9.86858C20.3541 10.4495 19.8815 10.922 19.3006 10.922ZM21.0772 12.735H17.5241C17.146 12.735 16.7934 12.8451 16.4957 13.0343C16.0422 12.4924 15.3614 12.147 14.6011 12.147H9.39891C8.63867 12.147 7.95779 12.4924 7.50434 13.0343C7.19708 12.8385 6.84024 12.7347 6.47589 12.735H2.92286C1.86261 12.735 1.00006 13.5975 1.00006 14.6578V17.6347C1.00006 18.0406 1.32911 18.3697 1.73504 18.3697H6.92878V18.9577C6.92878 19.3636 7.25783 19.6927 7.66376 19.6927H16.3363C16.7422 19.6927 17.0713 19.3636 17.0713 18.9577V18.3697H22.265C22.6709 18.3697 23 18.0406 23 17.6347V14.6578C23 13.5975 22.1374 12.735 21.0772 12.735ZM6.92878 16.8997H2.46997V14.6578C2.46997 14.4081 2.67313 14.2049 2.92286 14.2049H6.47589C6.72562 14.2049 6.92878 14.408 6.92878 14.6578V16.8997ZM12.7961 13.6169L12 14.6793L11.2039 13.6169L12.7961 13.6169ZM15.6013 14.6578V18.2227H8.39869V14.6172C8.39869 14.076 8.831 13.6349 9.36832 13.6185L11.4119 16.3457C11.7059 16.7381 12.2947 16.7372 12.5882 16.3457L14.6318 13.6185C15.1691 13.6349 15.6014 14.076 15.6014 14.6172L15.6013 14.6578ZM21.5301 16.8997H17.0713V14.6578C17.0713 14.4081 17.2744 14.2049 17.5241 14.2049H21.0772C21.3269 14.2049 21.5301 14.408 21.5301 14.6578V16.8997Z" fill="url(#paint0_linear_186_2445)"/>
</g>
</g>
<defs>
<linearGradient id="paint0_linear_186_2445" x1="23" y1="4.30737" x2="-1.5913" y2="11.1837" gradientUnits="userSpaceOnUse">
<stop stop-color="#1ADDD2"/>
<stop offset="1" stop-color="#0094CC"/>
</linearGradient>
</defs>
</svg>
