<svg width="24" height="24" viewBox="0 0 24 24" fill="none" xmlns="http://www.w3.org/2000/svg">
<g id="Frame">
<g id="Group">
<path id="Vector" d="M6.28571 10.0215C6.28571 9.83458 6.36097 9.65535 6.49492 9.52321C6.62888 9.39107 6.81056 9.31683 7 9.31683H11.2857C11.4752 9.31683 11.6568 9.39107 11.7908 9.52321C11.9247 9.65535 12 9.83458 12 10.0215C12 10.2083 11.9247 10.3876 11.7908 10.5197C11.6568 10.6518 11.4752 10.7261 11.2857 10.7261H7C6.81056 10.7261 6.62888 10.6518 6.49492 10.5197C6.36097 10.3876 6.28571 10.2083 6.28571 10.0215ZM11.2857 12.1353H7C6.81056 12.1353 6.62888 12.2096 6.49492 12.3417C6.36097 12.4738 6.28571 12.6531 6.28571 12.8399C6.28571 13.0268 6.36097 13.206 6.49492 13.3382C6.62888 13.4703 6.81056 13.5446 7 13.5446H11.2857C11.4752 13.5446 11.6568 13.4703 11.7908 13.3382C11.9247 13.206 12 13.0268 12 12.8399C12 12.6531 11.9247 12.4738 11.7908 12.3417C11.6568 12.2096 11.4752 12.1353 11.2857 12.1353ZM11.2857 14.9538H7C6.81056 14.9538 6.62888 15.028 6.49492 15.1602C6.36097 15.2923 6.28571 15.4715 6.28571 15.6584C6.28571 15.8453 6.36097 16.0245 6.49492 16.1567C6.62888 16.2888 6.81056 16.363 7 16.363H11.2857C11.4752 16.363 11.6568 16.2888 11.7908 16.1567C11.9247 16.0245 12 15.8453 12 15.6584C12 15.4715 11.9247 15.2923 11.7908 15.1602C11.6568 15.028 11.4752 14.9538 11.2857 14.9538ZM11.2857 17.7723H7C6.81056 17.7723 6.62888 17.8465 6.49492 17.9787C6.36097 18.1108 6.28571 18.29 6.28571 18.4769C6.28571 18.6638 6.36097 18.843 6.49492 18.9751C6.62888 19.1073 6.81056 19.1815 7 19.1815H11.2857C11.4752 19.1815 11.6568 19.1073 11.7908 18.9751C11.9247 18.843 12 18.6638 12 18.4769C12 18.29 11.9247 18.1108 11.7908 17.9787C11.6568 17.8465 11.4752 17.7723 11.2857 17.7723ZM22 21.2954C22 21.4823 21.9247 21.6615 21.7908 21.7936C21.6568 21.9258 21.4752 22 21.2857 22H2.71429C2.52485 22 2.34316 21.9258 2.20921 21.7936C2.07525 21.6615 2 21.4823 2 21.2954C2 21.1085 2.07525 20.9293 2.20921 20.7971C2.34316 20.665 2.52485 20.5908 2.71429 20.5908H3.42857V7.63843C3.42769 7.37657 3.50116 7.1197 3.64065 6.89691C3.78015 6.67412 3.9801 6.49432 4.21786 6.37786L12.7893 2.15014C13.2364 1.9303 13.755 1.95285 14.1793 2.21144C14.6036 2.47004 14.8564 2.91818 14.8564 3.41071V8.61221H19.1421C19.93 8.61221 20.5707 9.24426 20.5707 10.0215V20.5908H21.285C21.4744 20.5908 21.6561 20.665 21.7901 20.7971C21.924 20.9293 22 21.1085 22 21.2954ZM14.8571 10.0215V20.5908H19.1429V10.0215H14.8571ZM4.85714 20.5908H13.4286V3.41071L4.85714 7.63843V20.5908Z" fill="url(#paint0_linear_186_2397)"/>
</g>
</g>
<defs>
<linearGradient id="paint0_linear_186_2397" x1="22" y1="2" x2="-1.216" y2="6.53991" gradientUnits="userSpaceOnUse">
<stop stop-color="#1ADDD2"/>
<stop offset="1" stop-color="#0094CC"/>
</linearGradient>
</defs>
</svg>
